<svg viewBox="0 0 29 29" xmlns="http://www.w3.org/2000/svg" fill="#646cff">
    <path d="M12.3307 20.667C7.73573 20.667 3.9974 16.9287 3.9974 12.3337C3.9974 7.73866 7.73573 4.00033 12.3307 4.00033C16.9257 4.00033 20.6641 7.73866 20.6641 12.3337C20.6641 14.0303 20.1491 15.6037 19.2757 16.922C18.6557 17.857 17.8541 18.6587 16.9191 19.2787C15.6024 20.152 14.0274 20.667 12.3307 20.667ZM21.6657 19.312C23.1241 17.3637 23.9974 14.9537 23.9974 12.3337C23.9974 5.89033 18.7741 0.666992 12.3307 0.666992C5.8874 0.666992 0.664062 5.89033 0.664062 12.3337C0.664062 18.777 5.8874 24.0003 12.3307 24.0003C14.9507 24.0003 17.3607 23.127 19.3091 21.6687L26.1524 28.512L28.5091 26.1553L21.6657 19.312Z"></path>
</svg>